<mxfile host="app.diagrams.net" modified="2023-04-14T18:04:30.467Z" agent="Mozilla/5.0 (Windows NT 10.0; Win64; x64) AppleWebKit/537.36 (KHTML, like Gecko) Chrome/111.0.0.0 Safari/537.36" etag="ixs86bDk3PTK5LqxtqGv" version="21.1.8" type="device">
  <diagram name="Page-1" id="Twbbgj7PWme-tqn4L7F8">
    <mxGraphModel dx="3667" dy="1733" grid="1" gridSize="10" guides="1" tooltips="1" connect="1" arrows="1" fold="1" page="1" pageScale="1" pageWidth="827" pageHeight="1169" math="0" shadow="0">
      <root>
        <mxCell id="0" />
        <mxCell id="1" parent="0" />
        <mxCell id="Me6gHDi2PranXG4eHFg2-1" value="Homepage" style="rounded=0;whiteSpace=wrap;html=1;fillColor=#f5f5f5;strokeColor=none;fontColor=#808080;" vertex="1" parent="1">
          <mxGeometry x="130" y="280" width="320" height="200" as="geometry" />
        </mxCell>
        <mxCell id="Me6gHDi2PranXG4eHFg2-2" value="Gamescene" style="rounded=0;whiteSpace=wrap;html=1;fillColor=#ffe6cc;strokeColor=none;fontColor=#808080;" vertex="1" parent="1">
          <mxGeometry x="130" y="600" width="320" height="200" as="geometry" />
        </mxCell>
        <mxCell id="Me6gHDi2PranXG4eHFg2-3" value="HighscorePage" style="rounded=0;whiteSpace=wrap;html=1;fillColor=#d5e8d4;strokeColor=none;fontColor=#808080;" vertex="1" parent="1">
          <mxGeometry x="130" width="320" height="200" as="geometry" />
        </mxCell>
        <mxCell id="Me6gHDi2PranXG4eHFg2-4" value="HelpPage" style="rounded=0;whiteSpace=wrap;html=1;fillColor=#e1d5e7;strokeColor=none;fontColor=#808080;" vertex="1" parent="1">
          <mxGeometry x="580" y="280" width="320" height="200" as="geometry" />
        </mxCell>
        <mxCell id="Me6gHDi2PranXG4eHFg2-5" value="LoginPage" style="rounded=0;whiteSpace=wrap;html=1;fillColor=#dae8fc;strokeColor=none;fontColor=#808080;" vertex="1" parent="1">
          <mxGeometry x="-330" y="280" width="320" height="200" as="geometry" />
        </mxCell>
        <mxCell id="Me6gHDi2PranXG4eHFg2-7" style="edgeStyle=orthogonalEdgeStyle;rounded=0;orthogonalLoop=1;jettySize=auto;html=1;exitX=0.5;exitY=1;exitDx=0;exitDy=0;entryX=0.5;entryY=0;entryDx=0;entryDy=0;" edge="1" parent="1" source="Me6gHDi2PranXG4eHFg2-6" target="Me6gHDi2PranXG4eHFg2-2">
          <mxGeometry relative="1" as="geometry" />
        </mxCell>
        <mxCell id="Me6gHDi2PranXG4eHFg2-6" value="Play" style="rounded=0;whiteSpace=wrap;html=1;" vertex="1" parent="1">
          <mxGeometry x="240" y="420" width="100" height="30" as="geometry" />
        </mxCell>
        <mxCell id="Me6gHDi2PranXG4eHFg2-9" style="edgeStyle=orthogonalEdgeStyle;rounded=0;orthogonalLoop=1;jettySize=auto;html=1;exitX=0.5;exitY=0;exitDx=0;exitDy=0;entryX=0.5;entryY=1;entryDx=0;entryDy=0;" edge="1" parent="1" source="Me6gHDi2PranXG4eHFg2-8" target="Me6gHDi2PranXG4eHFg2-3">
          <mxGeometry relative="1" as="geometry" />
        </mxCell>
        <mxCell id="Me6gHDi2PranXG4eHFg2-8" value="Highscores" style="rounded=0;whiteSpace=wrap;html=1;" vertex="1" parent="1">
          <mxGeometry x="240" y="320" width="100" height="30" as="geometry" />
        </mxCell>
        <mxCell id="Me6gHDi2PranXG4eHFg2-11" style="edgeStyle=orthogonalEdgeStyle;rounded=0;orthogonalLoop=1;jettySize=auto;html=1;exitX=1;exitY=0.5;exitDx=0;exitDy=0;entryX=0;entryY=0.5;entryDx=0;entryDy=0;" edge="1" parent="1" source="Me6gHDi2PranXG4eHFg2-10" target="Me6gHDi2PranXG4eHFg2-4">
          <mxGeometry relative="1" as="geometry" />
        </mxCell>
        <mxCell id="Me6gHDi2PranXG4eHFg2-10" value="Help" style="rounded=0;whiteSpace=wrap;html=1;" vertex="1" parent="1">
          <mxGeometry x="330" y="365" width="100" height="30" as="geometry" />
        </mxCell>
        <mxCell id="Me6gHDi2PranXG4eHFg2-13" style="edgeStyle=orthogonalEdgeStyle;rounded=0;orthogonalLoop=1;jettySize=auto;html=1;exitX=0;exitY=0.5;exitDx=0;exitDy=0;entryX=1;entryY=0.5;entryDx=0;entryDy=0;" edge="1" parent="1" source="Me6gHDi2PranXG4eHFg2-12" target="Me6gHDi2PranXG4eHFg2-5">
          <mxGeometry relative="1" as="geometry" />
        </mxCell>
        <mxCell id="Me6gHDi2PranXG4eHFg2-12" value="Login" style="rounded=0;whiteSpace=wrap;html=1;" vertex="1" parent="1">
          <mxGeometry x="140" y="365" width="100" height="30" as="geometry" />
        </mxCell>
        <mxCell id="Me6gHDi2PranXG4eHFg2-16" style="edgeStyle=orthogonalEdgeStyle;rounded=0;orthogonalLoop=1;jettySize=auto;html=1;exitX=0;exitY=0.5;exitDx=0;exitDy=0;entryX=1;entryY=0.75;entryDx=0;entryDy=0;" edge="1" parent="1" source="Me6gHDi2PranXG4eHFg2-15" target="Me6gHDi2PranXG4eHFg2-1">
          <mxGeometry relative="1" as="geometry" />
        </mxCell>
        <mxCell id="Me6gHDi2PranXG4eHFg2-15" value="Back" style="rounded=0;whiteSpace=wrap;html=1;" vertex="1" parent="1">
          <mxGeometry x="610" y="420" width="100" height="30" as="geometry" />
        </mxCell>
        <mxCell id="Me6gHDi2PranXG4eHFg2-18" style="edgeStyle=orthogonalEdgeStyle;rounded=0;orthogonalLoop=1;jettySize=auto;html=1;exitX=1;exitY=0.5;exitDx=0;exitDy=0;entryX=0;entryY=0.75;entryDx=0;entryDy=0;" edge="1" parent="1" source="Me6gHDi2PranXG4eHFg2-17" target="Me6gHDi2PranXG4eHFg2-1">
          <mxGeometry relative="1" as="geometry" />
        </mxCell>
        <mxCell id="Me6gHDi2PranXG4eHFg2-17" value="Back" style="rounded=0;whiteSpace=wrap;html=1;" vertex="1" parent="1">
          <mxGeometry x="-140" y="410" width="100" height="30" as="geometry" />
        </mxCell>
        <mxCell id="Me6gHDi2PranXG4eHFg2-20" style="edgeStyle=orthogonalEdgeStyle;rounded=0;orthogonalLoop=1;jettySize=auto;html=1;exitX=0.5;exitY=0;exitDx=0;exitDy=0;entryX=0.25;entryY=1;entryDx=0;entryDy=0;" edge="1" parent="1" source="Me6gHDi2PranXG4eHFg2-19" target="Me6gHDi2PranXG4eHFg2-1">
          <mxGeometry relative="1" as="geometry" />
        </mxCell>
        <mxCell id="Me6gHDi2PranXG4eHFg2-19" value="Back" style="rounded=0;whiteSpace=wrap;html=1;" vertex="1" parent="1">
          <mxGeometry x="150" y="620" width="100" height="30" as="geometry" />
        </mxCell>
        <mxCell id="Me6gHDi2PranXG4eHFg2-22" style="edgeStyle=orthogonalEdgeStyle;rounded=0;orthogonalLoop=1;jettySize=auto;html=1;exitX=0.5;exitY=1;exitDx=0;exitDy=0;entryX=0.25;entryY=0;entryDx=0;entryDy=0;" edge="1" parent="1" source="Me6gHDi2PranXG4eHFg2-21" target="Me6gHDi2PranXG4eHFg2-1">
          <mxGeometry relative="1" as="geometry" />
        </mxCell>
        <mxCell id="Me6gHDi2PranXG4eHFg2-21" value="Back" style="rounded=0;whiteSpace=wrap;html=1;" vertex="1" parent="1">
          <mxGeometry x="170" y="150" width="100" height="30" as="geometry" />
        </mxCell>
      </root>
    </mxGraphModel>
  </diagram>
</mxfile>
